{
	"asset":{
		"generator":"Khronos glTF Blender I/O v4.2.69",
		"version":"2.0"
	},
	"scene":0,
	"scenes":[
		{
			"name":"Scene",
			"nodes":[
				0
			]
		}
	],
	"nodes":[
		{
			"mesh":0,
			"name":"Curve",
			"rotation":[
				0.7071068286895752,
				0,
				0,
				0.7071068286895752
			]
		}
	],
	"materials":[
		{
			"doubleSided":true,
			"name":"SVGMat.005",
			"pbrMetallicRoughness":{
				"metallicFactor":0.9309090971946716,
				"roughnessFactor":0.2672727108001709
			}
		}
	],
	"meshes":[
		{
			"name":"Curve.004",
			"primitives":[
				{
					"attributes":{
						"POSITION":0,
						"NORMAL":1,
						"TEXCOORD_0":2
					},
					"indices":3,
					"material":0
				}
			]
		}
	],
	"accessors":[
		{
			"bufferView":0,
			"componentType":5126,
			"count":11932,
			"max":[
				0.13662686944007874,
				0.007000000216066837,
				0.14327965676784515
			],
			"min":[
				-0.13401558995246887,
				-0.007000000216066837,
				-0.13771019876003265
			],
			"type":"VEC3"
		},
		{
			"bufferView":1,
			"componentType":5126,
			"count":11932,
			"type":"VEC3"
		},
		{
			"bufferView":2,
			"componentType":5126,
			"count":11932,
			"type":"VEC2"
		},
		{
			"bufferView":3,
			"componentType":5123,
			"count":60750,
			"type":"SCALAR"
		}
	],
	"bufferViews":[
		{
			"buffer":0,
			"byteLength":143184,
			"byteOffset":0,
			"target":34962
		},
		{
			"buffer":0,
			"byteLength":143184,
			"byteOffset":143184,
			"target":34962
		},
		{
			"buffer":0,
			"byteLength":95456,
			"byteOffset":286368,
			"target":34962
		},
		{
			"buffer":0,
			"byteLength":121500,
			"byteOffset":381824,
			"target":34963
		}
	],
	"buffers":[
		{
			"byteLength":503324,
			"uri":"takiestudio.bin"
		}
	]
}
